<?xml version="1.0" encoding="UTF-8"?>
<svg width="58px" height="58px" viewBox="0 0 58 58" version="1.1" xmlns="http://www.w3.org/2000/svg" xmlns:xlink="http://www.w3.org/1999/xlink">
    <title>Group 5</title>
    <g id="consumer-views" stroke="none" stroke-width="1" fill="none" fill-rule="evenodd">
        <g id="new_june_desktop" transform="translate(-602.000000, -1394.000000)">
            <g id="Group-5" transform="translate(604.000000, 1396.000000)">
                <polygon id="Rectangle-Copy-2" stroke="#FFFFFF" stroke-width="3" points="0 0 54 0 54 54 0 54"></polygon>
                <g id="Group-2-Copy-2" transform="translate(8.000000, 15.000000)">
                    <path d="M8.38742901,2.06281102 L3.63362731,2.06281102 L3.63362731,4.42242939 L7.01197955,4.42242939 C7.60007873,4.42242939 8.18817791,4.9566826 8.18817791,5.47609545 C8.18817791,5.96582757 7.60007873,6.36651748 7.01197955,6.36651748 L3.63362731,6.36651748 L3.63362731,9.48299456 C3.63362731,10.0024074 3.2252251,10.4030973 2.65346201,10.4030973 C1.93467413,10.4030973 1.49359974,10.0024074 1.49359974,9.48299456 L1.49359974,1.05366606 C1.49359974,0.519412848 1.93467413,0.133563304 2.65346201,0.133563304 L8.38742901,0.133563304 C9.1062169,0.133563304 9.53095519,0.519412848 9.53095519,1.05366606 C9.53095519,1.52855781 9.1062169,2.06281102 8.38742901,2.06281102 Z M9.6885166,9.89852484 C9.46175972,10.4030973 8.93738443,10.5069799 8.42718145,10.4030973 C7.97366769,10.1359707 7.69022159,9.6017175 7.97366769,8.97842208 L12.0411192,0.652976152 C12.4237715,-0.133563304 13.4441774,-0.163244038 13.7984851,0.652976152 L17.7950751,8.97842208 C18.3761396,10.1359707 16.6612907,11.0560735 16.1510877,9.89852484 L15.5275063,8.59257254 L10.2979257,8.59257254 L9.6885166,9.89852484 Z M11.1766086,6.63364408 L14.5212726,6.63364408 L12.9198022,2.96807342 L11.1766086,6.63364408 Z M20.3397912,6.75236702 L20.3397912,9.43847346 C20.3397912,10.7295854 18.4548746,10.7741065 18.4548746,9.4681542 L18.4548746,1.0388257 C18.4548746,0.519412848 18.8375269,0.133563304 19.3052129,0.133563304 L23.0750461,0.133563304 C26.6748116,0.133563304 27.4117714,5.17928811 24.4072427,6.44071931 L26.2921593,8.84485878 C27.0291192,9.98756705 25.5551995,11.0857542 24.7048612,9.95788631 L22.5648431,6.75236702 L20.3397912,6.75236702 Z M20.3397912,1.92924772 L20.3397912,5.04572481 L23.0750461,5.04572481 C24.9174457,5.04572481 25.0308242,1.92924772 23.0750461,1.92924772 L20.3397912,1.92924772 Z M30.9646005,7.00465326 L28.980518,3.88817618 L28.980518,9.37911199 C28.980518,10.0320881 28.5011424,10.4030973 28.0217667,10.4030973 C27.5956551,10.4030973 27.2228073,10.0320881 27.2228073,9.37911199 L27.2228073,1.02398533 C27.2228073,0.25228624 27.8087109,0 28.0217667,0 C28.4079304,0 28.6343023,0.25228624 28.8606741,0.534253215 L31.7901919,4.94184224 L34.8262375,0.371009177 C35.2656652,-0.237445873 36.3442604,0 36.3442604,1.02398533 L36.3442604,9.37911199 C36.3442604,10.0320881 35.9714127,10.4030973 35.545301,10.4030973 C35.0659254,10.4030973 34.6930776,10.0320881 34.6930776,9.37911199 L34.6930776,3.88817618 L32.4826233,7.00465326 C32.0032477,7.65762941 31.4040281,7.65762941 30.9646005,7.00465326 Z" id="farm" fill="#FFFFFF"></path>
                    <path d="M9.04953148,20.7478982 C9.04953148,21.0065499 8.93461679,21.2508319 8.69042308,21.5238531 C7.67055525,22.3716557 6.42085805,22.7308941 5.15679651,22.7308941 C2.14028602,22.7308941 0,21.0065499 0,17.5866005 C0,14.6839543 2.2552007,12.4279373 5.28607553,12.4279373 C6.42085805,12.4279373 7.67055525,12.8159148 8.56114406,13.6924564 C9.43736854,14.5546285 8.173307,15.8335172 7.31144686,15.0719318 C6.77996644,14.5546285 6.03302098,14.1666511 5.28607553,14.1666511 C3.54799091,14.1666511 1.86736364,15.560496 1.86736364,17.5866005 C1.86736364,19.7132917 3.27506853,21.0065499 5.15679651,21.0065499 C6.03302098,21.0065499 6.77996644,20.7478982 7.31144686,20.3599208 L7.31144686,18.5924679 L5.15679651,18.5924679 C3.87837063,18.5924679 4.00764965,16.8393846 5.15679651,16.8393846 L8.02966364,16.8393846 C8.56114406,16.8393846 9.04953148,17.2417316 9.04953148,17.6871872 L9.04953148,20.7478982 Z M11.7460365,19.0954017 L11.7460365,21.6962875 C11.7460365,22.9464371 9.83557985,22.9895457 9.83557985,21.7250266 L9.83557985,13.5631306 C9.83557985,13.0601969 10.2234169,12.686589 10.69744,12.686589 L14.5183533,12.686589 C18.1668945,12.686589 18.91384,17.5722309 15.8686008,18.7936414 L17.7790575,21.1215061 C18.5260029,22.2279603 17.032112,23.291306 16.1702519,22.1992213 L14.0012372,19.0954017 L11.7460365,19.0954017 Z M11.7460365,14.4253027 L11.7460365,17.4429051 L14.5183533,17.4429051 C16.3857169,17.4429051 16.5006316,14.4253027 14.5183533,14.4253027 L11.7460365,14.4253027 Z M25.2141972,18.83675 L25.2141972,13.6349783 C25.2141972,12.3560896 27.0959252,12.2555029 27.0959252,13.6349783 L27.0959252,18.83675 C27.0959252,24.2109562 18.4342308,24.2109562 18.4342308,18.83675 L18.4342308,13.6349783 C18.4342308,12.3417201 20.3159588,12.284242 20.3159588,13.6349783 L20.3159588,18.83675 C20.3159588,21.6675485 25.2141972,21.8399829 25.2141972,18.83675 Z M34.0985388,15.4311702 C34.0985388,14.9569755 33.7107018,14.4396722 33.0930353,14.4396722 L30.0621605,14.4396722 L30.0621605,16.580733 L33.0930353,16.580733 C33.7107018,16.580733 34.0985388,16.1927555 34.0985388,15.4311702 Z M33.5670584,22.6303073 L29.056657,22.6303073 C28.5395409,22.6303073 28.1804325,22.2423299 28.1804325,21.7393961 L28.1804325,13.5775001 C28.1804325,13.0601969 28.5395409,12.686589 29.056657,12.686589 L33.0930353,12.686589 C34.9747633,12.686589 35.9946312,13.9654776 35.9946312,15.4311702 C35.9946312,16.0777993 35.8078948,16.7100588 35.2045927,17.2417316 C36.3393752,17.6871872 36.842127,18.5637289 36.842127,19.6270745 C36.842127,21.279571 35.7217088,22.6303073 33.5670584,22.6303073 Z M30.0621605,18.3338163 L30.0621605,20.877224 L33.5670584,20.877224 C35.2333214,20.877224 35.2333214,18.3338163 33.5670584,18.3338163 L30.0621605,18.3338163 Z" id="grub" fill="#F8F7F3"></path>
                </g>
            </g>
        </g>
    </g>
</svg>