<?xml version="1.0" encoding="UTF-8"?>
<svg width="112px" height="17px" viewBox="0 0 112 17" version="1.1" xmlns="http://www.w3.org/2000/svg" xmlns:xlink="http://www.w3.org/1999/xlink">
    <title>Group 2 Copy 2</title>
    <g id="consumer-views" stroke="none" stroke-width="1" fill="none" fill-rule="evenodd">
        <g id="FG_home-browse-Copy" transform="translate(-132.000000, -35.000000)">
            <g id="Group-2-Copy-2" transform="translate(132.000000, 35.000000)">
                <path d="M10.5316694,3.30151162 L3.2693097,3.30151162 L3.2693097,7.07806088 L8.43040197,7.07806088 C9.32883822,7.07806088 10.2272745,7.93312863 10.2272745,8.76444451 C10.2272745,9.54825662 9.32883822,10.1895574 8.43040197,10.1895574 L3.2693097,10.1895574 L3.2693097,15.1774527 C3.2693097,16.0087686 2.64539563,16.6500694 1.77191594,16.6500694 C0.67382719,16.6500694 1.42108547e-14,16.0087686 1.42108547e-14,15.1774527 L1.42108547e-14,1.68638363 C1.42108547e-14,0.831315875 0.67382719,0.213766939 1.77191594,0.213766939 L10.5316694,0.213766939 C11.6297582,0.213766939 12.2786288,0.831315875 12.2786288,1.68638363 C12.2786288,2.44644386 11.6297582,3.30151162 10.5316694,3.30151162 Z M12.5193346,15.8425054 C12.1729192,16.6500694 11.3718336,16.8163326 10.592399,16.6500694 C9.89956825,16.2225355 9.46654903,15.3674677 9.89956825,14.3698887 L16.1133942,1.04508281 C16.6979701,-0.213766939 18.2568394,-0.261270703 18.7981134,1.04508281 L24.9036845,14.3698887 C25.791374,16.2225355 23.1716076,17.6951522 22.392173,15.8425054 L21.4395307,13.7523398 L13.4503259,13.7523398 L12.5193346,15.8425054 Z M14.7926855,10.6170913 L19.9023124,10.6170913 L17.4557538,4.75037643 L14.7926855,10.6170913 Z M28.7912349,10.8071064 L28.7912349,15.106197 C28.7912349,17.1726108 25.9116571,17.2438664 25.9116571,15.1537008 L25.9116571,1.66263175 C25.9116571,0.831315875 26.496233,0.213766939 27.2107147,0.213766939 L32.9698705,0.213766939 C38.4692147,0.213766939 39.5950647,8.28940686 35.0050609,10.3083168 L37.8846387,14.1561218 C39.0104887,15.9850167 36.7587887,17.742656 35.4597311,15.9375129 L32.1904359,10.8071064 L28.7912349,10.8071064 Z M28.7912349,3.08774468 L28.7912349,8.07563993 L32.9698705,8.07563993 C35.7844955,8.07563993 35.9577032,3.08774468 32.9698705,3.08774468 L28.7912349,3.08774468 Z M45.0227044,11.2108884 L41.9916312,6.22299312 L41.9916312,15.0111895 C41.9916312,16.0562723 41.2592914,16.6500694 40.5269516,16.6500694 C39.8759828,16.6500694 39.3063852,16.0562723 39.3063852,15.0111895 L39.3063852,1.63887987 C39.3063852,0.403781996 40.2014672,4.97379915e-13 40.5269516,4.97379915e-13 C41.116892,4.97379915e-13 41.4627191,0.403781996 41.8085462,0.855067757 L46.2839563,7.90937675 L50.9221085,0.593797053 C51.59342,-0.380030114 53.2411846,4.97379915e-13 53.2411846,1.63887987 L53.2411846,15.0111895 C53.2411846,16.0562723 52.6715869,16.6500694 52.0206182,16.6500694 C51.2882784,16.6500694 50.7186808,16.0562723 50.7186808,15.0111895 L50.7186808,6.22299312 L47.3417805,11.2108884 C46.6094406,12.2559712 45.6940159,12.2559712 45.0227044,11.2108884 Z" id="farm" fill="#77CC22"></path>
                <path d="M68.8249252,13.3160271 C68.8249252,13.7299969 68.6493706,14.1209683 68.276317,14.5579364 C66.7182699,15.9148373 64.8091136,16.4897953 62.8780129,16.4897953 C58.2697045,16.4897953 55,13.7299969 55,8.25639679 C55,3.6107362 58.4452591,4.74287276e-13 63.0755119,4.74287276e-13 C64.8091136,4.74287276e-13 66.7182699,0.620954633 68.0788181,2.02385214 C69.417422,3.40375132 67.4863213,5.45060178 66.1696618,4.23169083 C65.3577217,3.40375132 64.2166168,2.78279669 63.0755119,2.78279669 C60.4202484,2.78279669 57.8527623,5.0136337 57.8527623,8.25639679 C57.8527623,11.6601481 60.0033063,13.7299969 62.8780129,13.7299969 C64.2166168,13.7299969 65.3577217,13.3160271 66.1696618,12.6950725 L66.1696618,9.86627917 L62.8780129,9.86627917 C60.9249679,9.86627917 61.1224669,7.06048416 62.8780129,7.06048416 L67.2668781,7.06048416 C68.0788181,7.06048416 68.8249252,7.70443711 68.8249252,8.41738502 L68.8249252,13.3160271 Z M72.9443628,10.6712204 L72.9443628,14.8339162 C72.9443628,16.83477 70.0257674,16.903765 70.0257674,14.8799129 L70.0257674,1.81686726 C70.0257674,1.01192607 70.6182642,0.413969755 71.342427,0.413969755 L77.1796176,0.413969755 C82.7534763,0.413969755 83.8945813,8.23339847 79.2423842,10.1882556 L82.1609795,13.9139834 C83.3020845,15.6848541 81.0198746,17.3867297 79.7032151,15.6388574 L76.3896219,10.6712204 L72.9443628,10.6712204 Z M72.9443628,3.19676644 L72.9443628,8.02641359 L77.1796176,8.02641359 C80.03238,8.02641359 80.2079346,3.19676644 77.1796176,3.19676644 L72.9443628,3.19676644 Z M93.5196063,10.2572506 L93.5196063,1.93185886 C93.5196063,-0.114991599 96.394313,-0.275979837 96.394313,1.93185886 L96.394313,10.2572506 C96.394313,18.8586222 83.1618846,18.8586222 83.1618846,10.2572506 L83.1618846,1.93185886 C83.1618846,-0.137989918 86.0365913,-0.229983197 86.0365913,1.93185886 L86.0365913,10.2572506 C86.0365913,14.7879196 93.5196063,15.0638994 93.5196063,10.2572506 Z M107.092172,4.80664883 C107.092172,4.04770427 106.499675,3.21976476 105.556069,3.21976476 L100.925816,3.21976476 L100.925816,6.6465144 L105.556069,6.6465144 C106.499675,6.6465144 107.092172,6.02555977 107.092172,4.80664883 Z M106.280232,16.328807 L99.3897135,16.328807 C98.5997177,16.328807 98.0511096,15.7078524 98.0511096,14.9029112 L98.0511096,1.83986558 C98.0511096,1.01192607 98.5997177,0.413969755 99.3897135,0.413969755 L105.556069,0.413969755 C108.430776,0.413969755 109.988823,2.46082021 109.988823,4.80664883 C109.988823,5.84157321 109.703547,6.85349928 108.781885,7.70443711 C110.515487,8.41738502 111.283538,9.82028253 111.283538,11.5221582 C111.283538,14.166965 109.571881,16.328807 106.280232,16.328807 Z M100.925816,9.45230941 L100.925816,13.523012 L106.280232,13.523012 C108.825774,13.523012 108.825774,9.45230941 106.280232,9.45230941 L100.925816,9.45230941 Z" id="grub" fill="#551100"></path>
            </g>
        </g>
    </g>
</svg>