<?xml version="1.0" encoding="UTF-8"?>
<svg width="74px" height="77px" viewBox="0 0 74 77" version="1.1" xmlns="http://www.w3.org/2000/svg" xmlns:xlink="http://www.w3.org/1999/xlink">
    <title>Group 5</title>
    <g id="consumer-views" stroke="none" stroke-width="1" fill="none" fill-rule="evenodd">
        <g id="FG_navigation" transform="translate(-151.000000, -34.000000)">
            <g id="Group-5" transform="translate(153.000000, 36.000000)">
                <polygon id="Rectangle-Copy-2" stroke="#77CC33" stroke-width="3" points="0 0 70 0 70 73.0434783 0 73.0434783"></polygon>
                <g id="Group-2-Copy-2" transform="translate(11.159420, 21.304348)">
                    <path d="M10.7185862,2.80622021 L4.64353825,2.80622021 L4.64353825,6.01621312 L8.96085164,6.01621312 C9.71240396,6.01621312 10.4639563,6.74300397 10.4639563,7.44960618 C10.4639563,8.11583112 9.71240396,8.66092426 8.96085164,8.66092426 L4.64353825,8.66092426 L4.64353825,12.9005375 C4.64353825,13.6071397 4.12162692,14.1522329 3.39095105,14.1522329 C2.4723871,14.1522329 1.90872286,13.6071397 1.90872286,12.9005375 L1.90872286,1.43339306 C1.90872286,0.706602212 2.4723871,0.181697712 3.39095105,0.181697712 L10.7185862,0.181697712 C11.6371501,0.181697712 12.1799379,0.706602212 12.1799379,1.43339306 C12.1799379,2.07942937 11.6371501,2.80622021 10.7185862,2.80622021 Z M12.3812911,13.4658193 C12.0915106,14.1522329 11.4213933,14.2935533 10.7693872,14.1522329 C10.1898262,13.7888375 9.82760064,13.0620466 10.1898262,12.214124 L15.3877635,0.888299924 C15.8767681,-0.181697712 17.1807802,-0.222074981 17.6335622,0.888299924 L22.7409431,12.214124 C23.4835056,13.7888375 21.2920407,15.0405328 20.6400346,13.4658193 L19.8431383,11.6892195 L13.1600761,11.6892195 L12.3812911,13.4658193 Z M14.2829755,9.02431968 L18.5572375,9.02431968 L16.5106629,4.03772693 L14.2829755,9.02431968 Z M25.992924,9.18582876 L25.992924,12.8399716 C25.992924,14.5963828 23.5841238,14.6569487 23.5841238,12.8803489 L23.5841238,1.41320442 C23.5841238,0.706602212 24.0731283,0.181697712 24.6708005,0.181697712 L29.4884009,0.181697712 C34.088666,0.181697712 35.0304525,7.04583349 31.1908612,8.76186743 L33.5996614,12.0324262 C34.541448,13.5869511 32.6578749,15.0809101 31.5711981,13.5465738 L28.8363949,9.18582876 L25.992924,9.18582876 Z M25.992924,2.6245225 L25.992924,6.86413578 L29.4884009,6.86413578 C31.8428673,6.86413578 31.9877575,2.6245225 29.4884009,2.6245225 L25.992924,2.6245225 Z M39.5707359,9.52903555 L37.0352082,5.28942227 L37.0352082,12.7592171 C37.0352082,13.647517 36.4225974,14.1522329 35.8099867,14.1522329 C35.2654438,14.1522329 34.7889688,13.647517 34.7889688,12.7592171 L34.7889688,1.39301579 C34.7889688,0.343206789 35.5377153,0 35.8099867,0 C36.3034787,0 36.5927671,0.343206789 36.8820555,0.726790847 L40.6257877,6.72281533 L44.5056557,0.504715866 C45.0672156,-0.323018154 46.4455897,0 46.4455897,1.39301579 L46.4455897,12.7592171 C46.4455897,13.647517 45.9691147,14.1522329 45.4245718,14.1522329 C44.8119611,14.1522329 44.3354861,13.647517 44.3354861,12.7592171 L44.3354861,5.28942227 L41.5106699,9.52903555 C40.8980592,10.4173355 40.1322958,10.4173355 39.5707359,9.52903555 Z" id="farm" fill="#77CC33"></path>
                    <path d="M11.5647099,28.2251601 C11.5647099,28.5770263 11.4178564,28.9093443 11.1057928,29.2807586 C9.80246835,30.4340978 8.20543699,30.9228008 6.59004895,30.9228008 C2.73514566,30.9228008 0,28.5770263 0,23.9245734 C0,19.9758529 2.88199912,16.9067978 6.75525909,16.9067978 C8.20543699,16.9067978 9.80246835,17.4345971 10.9405827,18.6270325 C12.0603403,19.7999198 10.4449522,21.5397026 9.34355129,20.5036521 C8.66435405,19.7999198 7.70980657,19.2721205 6.75525909,19.2721205 C4.53410053,19.2721205 2.3863687,21.1682883 2.3863687,23.9245734 C2.3863687,26.8176953 4.18532356,28.5770263 6.59004895,28.5770263 C7.70980657,28.5770263 8.66435405,28.2251601 9.34355129,27.6973608 L9.34355129,25.2929419 L6.59004895,25.2929419 C4.95630422,25.2929419 5.12151436,22.9080711 6.59004895,22.9080711 L10.2613854,22.9080711 C10.9405827,22.9080711 11.5647099,23.4554185 11.5647099,24.0614102 L11.5647099,28.2251601 Z M15.010667,25.9771261 L15.010667,29.5153361 C15.010667,31.2160227 12.5692283,31.274667 12.5692283,29.5544323 L12.5692283,18.4510994 C12.5692283,17.7669152 13.0648587,17.258664 13.6706292,17.258664 L18.5535067,17.258664 C23.216104,17.258664 24.1706515,23.9050253 20.2790349,25.5666156 L22.7204736,28.7334112 C23.6750211,30.2386166 21.7659261,31.6851776 20.6645252,30.1995203 L17.8926662,25.9771261 L15.010667,25.9771261 Z M15.010667,19.6239867 L15.010667,23.7290922 L18.5535067,23.7290922 C20.9398754,23.7290922 21.0867289,19.6239867 18.5535067,19.6239867 L15.010667,19.6239867 Z M32.2220963,25.6252599 L32.2220963,18.54884 C32.2220963,16.8090572 34.6268217,16.6722204 34.6268217,18.54884 L34.6268217,25.6252599 C34.6268217,32.9362573 23.5577423,32.9362573 23.5577423,25.6252599 L23.5577423,18.54884 C23.5577423,16.7895091 25.9624677,16.7113166 25.9624677,18.54884 L25.9624677,25.6252599 C25.9624677,29.4762399 32.2220963,29.7108173 32.2220963,25.6252599 Z M43.5757043,20.9923552 C43.5757043,20.3472672 43.0800739,19.6435348 42.2907366,19.6435348 L38.4174766,19.6435348 L38.4174766,22.5562049 L42.2907366,22.5562049 C43.0800739,22.5562049 43.5757043,22.0284056 43.5757043,20.9923552 Z M42.8965071,30.785964 L37.1325088,30.785964 C36.4716683,30.785964 36.0127512,30.2581647 36.0127512,29.5739805 L36.0127512,18.4706475 C36.0127512,17.7669152 36.4716683,17.258664 37.1325088,17.258664 L42.2907366,17.258664 C44.695462,17.258664 45.9987864,18.9984468 45.9987864,20.9923552 C45.9987864,21.8720206 45.7601495,22.732138 44.9891689,23.4554185 C46.4393468,24.0614102 47.0818307,25.2538456 47.0818307,26.7004066 C47.0818307,28.9484406 45.6500094,30.785964 42.8965071,30.785964 Z M38.4174766,24.9410757 L38.4174766,28.4010932 L42.8965071,28.4010932 C45.0258822,28.4010932 45.0258822,24.9410757 42.8965071,24.9410757 L38.4174766,24.9410757 Z" id="grub" fill="#F8F7F3"></path>
                </g>
            </g>
        </g>
    </g>
</svg>