<?xml version="1.0" encoding="UTF-8"?>
<svg width="26px" height="26px" viewBox="0 0 26 26" version="1.1" xmlns="http://www.w3.org/2000/svg" xmlns:xlink="http://www.w3.org/1999/xlink">
    <title>Icon</title>
    <g id="consumer-views" stroke="none" stroke-width="1" fill="none" fill-rule="evenodd">
        <g id="quick-deliveries" transform="translate(-287.000000, -28.000000)" fill="#77CC22">
            <path d="M296.710288,28 C302.073131,28 306.420575,32.3474438 306.420575,37.7102876 C306.420575,39.841421 305.734037,41.8122047 304.570061,43.4135373 C304.594431,43.4316706 304.617175,43.4523978 304.63916,43.4743831 L311.977624,50.8128472 C312.364443,51.199666 312.365014,51.8262527 311.971653,52.2196135 L311.26307,52.928196 C310.872954,53.3183128 310.245667,53.3235301 309.856304,52.9341676 L302.51784,45.5957035 L302.462997,45.5338713 C300.852865,46.7197931 298.863415,47.4205752 296.710288,47.4205752 C291.347444,47.4205752 287,43.0731313 287,37.7102876 C287,32.3474438 291.347444,28 296.710288,28 Z M296.710288,30.7102876 C292.844294,30.7102876 289.710288,33.8442943 289.710288,37.7102876 C289.710288,41.5762808 292.844294,44.7102876 296.710288,44.7102876 C300.576281,44.7102876 303.710288,41.5762808 303.710288,37.7102876 C303.710288,33.8442943 300.576281,30.7102876 296.710288,30.7102876 Z" id="Icon"></path>
        </g>
    </g>
</svg>